<?xml version="1.0" encoding="UTF-8"?>
<svg xmlns="http://www.w3.org/2000/svg" xmlns:xlink="http://www.w3.org/1999/xlink" width="600" height="600" viewBox="0 0 600 600">
<defs>
<g>
<g id="glyph-0-0">
<path d="M 2.828125 0 L 1.328125 0 L 1.328125 -10 L 6.953125 -10 L 6.953125 -8.703125 L 2.828125 -8.703125 L 2.828125 -5.453125 L 6.6875 -5.453125 L 6.6875 -4.15625 L 2.828125 -4.15625 Z M 2.828125 0 "/>
</g>
<g id="glyph-0-1">
<path d="M 4.40625 0 L 0.53125 0 L 0.53125 -0.875 L 1.71875 -1.21875 L 1.71875 -8.765625 L 0.53125 -9.125 L 0.53125 -10 L 4.40625 -10 L 4.40625 -9.125 L 3.234375 -8.765625 L 3.234375 -1.21875 L 4.40625 -0.875 Z M 4.40625 0 "/>
</g>
<g id="glyph-0-2">
<path d="M 9.40625 -5.109375 C 9.40625 -3.421875 8.941406 -2.144531 8.015625 -1.28125 C 7.085938 -0.425781 5.804688 0 4.171875 0 L 1.296875 0 L 1.296875 -10 L 4.453125 -10 C 5.472656 -10 6.351562 -9.8125 7.09375 -9.4375 C 7.832031 -9.070312 8.398438 -8.523438 8.796875 -7.796875 C 9.203125 -7.066406 9.40625 -6.171875 9.40625 -5.109375 Z M 7.8125 -5.0625 C 7.8125 -6.3125 7.503906 -7.234375 6.890625 -7.828125 C 6.285156 -8.421875 5.425781 -8.71875 4.3125 -8.71875 L 2.828125 -8.71875 L 2.828125 -1.28125 L 4.046875 -1.28125 C 6.554688 -1.28125 7.8125 -2.539062 7.8125 -5.0625 Z M 7.8125 -5.0625 "/>
</g>
<g id="glyph-0-3">
</g>
<g id="glyph-0-4">
<path d="M 7.375 -5.015625 C 7.375 -3.929688 7.257812 -3.003906 7.03125 -2.234375 C 6.800781 -1.472656 6.4375 -0.882812 5.9375 -0.46875 C 5.445312 -0.0625 4.796875 0.140625 3.984375 0.140625 C 2.835938 0.140625 1.988281 -0.3125 1.4375 -1.21875 C 0.894531 -2.132812 0.625 -3.398438 0.625 -5.015625 C 0.625 -6.085938 0.734375 -7.007812 0.953125 -7.78125 C 1.171875 -8.550781 1.523438 -9.140625 2.015625 -9.546875 C 2.515625 -9.953125 3.171875 -10.15625 3.984375 -10.15625 C 5.128906 -10.15625 5.976562 -9.703125 6.53125 -8.796875 C 7.09375 -7.898438 7.375 -6.640625 7.375 -5.015625 Z M 2.109375 -5.015625 C 2.109375 -3.703125 2.25 -2.722656 2.53125 -2.078125 C 2.8125 -1.429688 3.296875 -1.109375 3.984375 -1.109375 C 4.671875 -1.109375 5.15625 -1.425781 5.4375 -2.0625 C 5.726562 -2.707031 5.875 -3.691406 5.875 -5.015625 C 5.875 -6.304688 5.726562 -7.273438 5.4375 -7.921875 C 5.15625 -8.578125 4.671875 -8.90625 3.984375 -8.90625 C 3.296875 -8.90625 2.8125 -8.578125 2.53125 -7.921875 C 2.25 -7.273438 2.109375 -6.304688 2.109375 -5.015625 Z M 2.109375 -5.015625 "/>
</g>
<g id="glyph-0-5">
<path d="M 5.203125 0 L 3.734375 0 L 3.734375 -6.640625 C 3.734375 -6.984375 3.738281 -7.296875 3.75 -7.578125 C 3.757812 -7.867188 3.773438 -8.148438 3.796875 -8.421875 C 3.671875 -8.304688 3.539062 -8.1875 3.40625 -8.0625 C 3.28125 -7.945312 3.132812 -7.820312 2.96875 -7.6875 L 1.875 -6.796875 L 1.125 -7.75 L 3.96875 -10 L 5.203125 -10 Z M 5.203125 0 "/>
</g>
<g id="glyph-0-6">
<path d="M 7.359375 0 L 0.640625 0 L 0.640625 -1.140625 L 3.21875 -3.765625 C 3.71875 -4.273438 4.132812 -4.71875 4.46875 -5.09375 C 4.8125 -5.476562 5.066406 -5.84375 5.234375 -6.1875 C 5.398438 -6.539062 5.484375 -6.925781 5.484375 -7.34375 C 5.484375 -7.84375 5.332031 -8.222656 5.03125 -8.484375 C 4.738281 -8.742188 4.351562 -8.875 3.875 -8.875 C 3.414062 -8.875 3.003906 -8.789062 2.640625 -8.625 C 2.273438 -8.457031 1.898438 -8.210938 1.515625 -7.890625 L 0.71875 -8.890625 C 1.113281 -9.222656 1.566406 -9.515625 2.078125 -9.765625 C 2.597656 -10.015625 3.210938 -10.140625 3.921875 -10.140625 C 4.867188 -10.140625 5.613281 -9.894531 6.15625 -9.40625 C 6.707031 -8.925781 6.984375 -8.28125 6.984375 -7.46875 C 6.984375 -6.925781 6.875 -6.429688 6.65625 -5.984375 C 6.445312 -5.535156 6.144531 -5.085938 5.75 -4.640625 C 5.363281 -4.191406 4.90625 -3.707031 4.375 -3.1875 L 2.5 -1.390625 L 2.5 -1.3125 L 7.359375 -1.3125 Z M 7.359375 0 "/>
</g>
<g id="glyph-0-7">
<path d="M 6.96875 -7.6875 C 6.96875 -7 6.773438 -6.453125 6.390625 -6.046875 C 6.003906 -5.648438 5.503906 -5.390625 4.890625 -5.265625 L 4.890625 -5.203125 C 5.679688 -5.109375 6.273438 -4.859375 6.671875 -4.453125 C 7.078125 -4.046875 7.28125 -3.515625 7.28125 -2.859375 C 7.28125 -2.273438 7.140625 -1.753906 6.859375 -1.296875 C 6.585938 -0.847656 6.164062 -0.492188 5.59375 -0.234375 C 5.019531 0.015625 4.285156 0.140625 3.390625 0.140625 C 2.859375 0.140625 2.363281 0.0976562 1.90625 0.015625 C 1.445312 -0.0664062 1.015625 -0.207031 0.609375 -0.40625 L 0.609375 -1.75 C 1.023438 -1.53125 1.472656 -1.363281 1.953125 -1.25 C 2.429688 -1.144531 2.890625 -1.09375 3.328125 -1.09375 C 4.179688 -1.09375 4.789062 -1.253906 5.15625 -1.578125 C 5.53125 -1.898438 5.71875 -2.347656 5.71875 -2.921875 C 5.71875 -3.484375 5.492188 -3.894531 5.046875 -4.15625 C 4.597656 -4.414062 3.925781 -4.546875 3.03125 -4.546875 L 2.125 -4.546875 L 2.125 -5.765625 L 3.046875 -5.765625 C 3.898438 -5.765625 4.515625 -5.921875 4.890625 -6.234375 C 5.273438 -6.554688 5.46875 -6.972656 5.46875 -7.484375 C 5.46875 -7.929688 5.320312 -8.28125 5.03125 -8.53125 C 4.738281 -8.78125 4.316406 -8.90625 3.765625 -8.90625 C 3.253906 -8.90625 2.804688 -8.820312 2.421875 -8.65625 C 2.046875 -8.5 1.695312 -8.3125 1.375 -8.09375 L 0.640625 -9.109375 C 1.003906 -9.390625 1.445312 -9.628906 1.96875 -9.828125 C 2.5 -10.035156 3.113281 -10.140625 3.8125 -10.140625 C 4.84375 -10.140625 5.625 -9.910156 6.15625 -9.453125 C 6.695312 -9.003906 6.96875 -8.414062 6.96875 -7.6875 Z M 6.96875 -7.6875 "/>
</g>
<g id="glyph-0-8">
<path d="M 7.734375 -2.21875 L 6.359375 -2.21875 L 6.359375 0 L 4.90625 0 L 4.90625 -2.21875 L 0.28125 -2.21875 L 0.28125 -3.390625 L 4.890625 -10.03125 L 6.359375 -10.03125 L 6.359375 -3.46875 L 7.734375 -3.46875 Z M 4.90625 -6.1875 C 4.90625 -6.625 4.914062 -7.035156 4.9375 -7.421875 C 4.957031 -7.816406 4.972656 -8.144531 4.984375 -8.40625 L 4.921875 -8.40625 C 4.847656 -8.21875 4.757812 -8.023438 4.65625 -7.828125 C 4.550781 -7.628906 4.441406 -7.457031 4.328125 -7.3125 L 1.6875 -3.46875 L 4.90625 -3.46875 Z M 4.90625 -6.1875 "/>
</g>
<g id="glyph-0-9">
<path d="M 3.953125 -6.203125 C 4.941406 -6.203125 5.738281 -5.941406 6.34375 -5.421875 C 6.945312 -4.910156 7.25 -4.179688 7.25 -3.234375 C 7.25 -2.191406 6.914062 -1.367188 6.25 -0.765625 C 5.59375 -0.160156 4.65625 0.140625 3.4375 0.140625 C 2.914062 0.140625 2.425781 0.09375 1.96875 0 C 1.519531 -0.09375 1.140625 -0.226562 0.828125 -0.40625 L 0.828125 -1.765625 C 1.160156 -1.566406 1.566406 -1.40625 2.046875 -1.28125 C 2.523438 -1.164062 2.988281 -1.109375 3.4375 -1.109375 C 4.132812 -1.109375 4.691406 -1.269531 5.109375 -1.59375 C 5.523438 -1.914062 5.734375 -2.414062 5.734375 -3.09375 C 5.734375 -3.695312 5.546875 -4.160156 5.171875 -4.484375 C 4.796875 -4.804688 4.203125 -4.96875 3.390625 -4.96875 C 3.117188 -4.96875 2.820312 -4.941406 2.5 -4.890625 C 2.1875 -4.847656 1.929688 -4.804688 1.734375 -4.765625 L 1.046875 -5.171875 L 1.421875 -10 L 6.5625 -10 L 6.5625 -8.6875 L 2.71875 -8.6875 L 2.484375 -6.0625 C 2.648438 -6.09375 2.851562 -6.125 3.09375 -6.15625 C 3.332031 -6.1875 3.617188 -6.203125 3.953125 -6.203125 Z M 3.953125 -6.203125 "/>
</g>
<g id="glyph-0-10">
<path d="M 0.6875 -4.25 C 0.6875 -4.832031 0.722656 -5.40625 0.796875 -5.96875 C 0.878906 -6.53125 1.019531 -7.0625 1.21875 -7.5625 C 1.425781 -8.0625 1.707031 -8.503906 2.0625 -8.890625 C 2.414062 -9.273438 2.863281 -9.578125 3.40625 -9.796875 C 3.957031 -10.015625 4.617188 -10.125 5.390625 -10.125 C 5.585938 -10.125 5.804688 -10.113281 6.046875 -10.09375 C 6.285156 -10.070312 6.488281 -10.046875 6.65625 -10.015625 L 6.65625 -8.765625 C 6.300781 -8.878906 5.898438 -8.9375 5.453125 -8.9375 C 4.816406 -8.9375 4.285156 -8.835938 3.859375 -8.640625 C 3.441406 -8.441406 3.109375 -8.171875 2.859375 -7.828125 C 2.617188 -7.484375 2.441406 -7.082031 2.328125 -6.625 C 2.222656 -6.164062 2.15625 -5.675781 2.125 -5.15625 L 2.21875 -5.15625 C 2.414062 -5.488281 2.703125 -5.765625 3.078125 -5.984375 C 3.453125 -6.210938 3.929688 -6.328125 4.515625 -6.328125 C 5.390625 -6.328125 6.085938 -6.054688 6.609375 -5.515625 C 7.140625 -4.984375 7.40625 -4.226562 7.40625 -3.25 C 7.40625 -2.195312 7.113281 -1.367188 6.53125 -0.765625 C 5.945312 -0.160156 5.15625 0.140625 4.15625 0.140625 C 3.507812 0.140625 2.921875 -0.015625 2.390625 -0.328125 C 1.867188 -0.648438 1.453125 -1.132812 1.140625 -1.78125 C 0.835938 -2.4375 0.6875 -3.257812 0.6875 -4.25 Z M 4.140625 -1.09375 C 4.671875 -1.09375 5.101562 -1.265625 5.4375 -1.609375 C 5.78125 -1.960938 5.953125 -2.507812 5.953125 -3.25 C 5.953125 -3.832031 5.800781 -4.296875 5.5 -4.640625 C 5.207031 -4.992188 4.769531 -5.171875 4.1875 -5.171875 C 3.78125 -5.171875 3.425781 -5.082031 3.125 -4.90625 C 2.832031 -4.738281 2.601562 -4.523438 2.4375 -4.265625 C 2.269531 -4.003906 2.1875 -3.738281 2.1875 -3.46875 C 2.1875 -3.082031 2.257812 -2.707031 2.40625 -2.34375 C 2.550781 -1.988281 2.769531 -1.691406 3.0625 -1.453125 C 3.351562 -1.210938 3.710938 -1.09375 4.140625 -1.09375 Z M 4.140625 -1.09375 "/>
</g>
<g id="glyph-0-11">
<path d="M 1.8125 0 L 5.796875 -8.6875 L 0.546875 -8.6875 L 0.546875 -10 L 7.390625 -10 L 7.390625 -8.9375 L 3.421875 0 Z M 1.8125 0 "/>
</g>
<g id="glyph-0-12">
<path d="M 3.984375 -10.140625 C 4.578125 -10.140625 5.101562 -10.046875 5.5625 -9.859375 C 6.019531 -9.679688 6.378906 -9.414062 6.640625 -9.0625 C 6.910156 -8.707031 7.046875 -8.265625 7.046875 -7.734375 C 7.046875 -7.128906 6.863281 -6.632812 6.5 -6.25 C 6.132812 -5.875 5.695312 -5.554688 5.1875 -5.296875 C 5.570312 -5.097656 5.929688 -4.875 6.265625 -4.625 C 6.597656 -4.375 6.863281 -4.082031 7.0625 -3.75 C 7.257812 -3.425781 7.359375 -3.039062 7.359375 -2.59375 C 7.359375 -2.03125 7.21875 -1.546875 6.9375 -1.140625 C 6.664062 -0.734375 6.28125 -0.414062 5.78125 -0.1875 C 5.28125 0.03125 4.691406 0.140625 4.015625 0.140625 C 2.929688 0.140625 2.09375 -0.09375 1.5 -0.5625 C 0.914062 -1.039062 0.625 -1.703125 0.625 -2.546875 C 0.625 -2.992188 0.71875 -3.382812 0.90625 -3.71875 C 1.09375 -4.0625 1.335938 -4.351562 1.640625 -4.59375 C 1.953125 -4.84375 2.289062 -5.050781 2.65625 -5.21875 C 2.175781 -5.5 1.769531 -5.835938 1.4375 -6.234375 C 1.113281 -6.628906 0.953125 -7.128906 0.953125 -7.734375 C 0.953125 -8.253906 1.085938 -8.691406 1.359375 -9.046875 C 1.628906 -9.398438 1.992188 -9.671875 2.453125 -9.859375 C 2.910156 -10.046875 3.421875 -10.140625 3.984375 -10.140625 Z M 3.96875 -8.96875 C 3.507812 -8.96875 3.128906 -8.851562 2.828125 -8.625 C 2.523438 -8.394531 2.375 -8.070312 2.375 -7.65625 C 2.375 -7.1875 2.535156 -6.820312 2.859375 -6.5625 C 3.179688 -6.3125 3.570312 -6.082031 4.03125 -5.875 C 4.46875 -6.0625 4.835938 -6.285156 5.140625 -6.546875 C 5.441406 -6.816406 5.59375 -7.1875 5.59375 -7.65625 C 5.59375 -8.070312 5.441406 -8.394531 5.140625 -8.625 C 4.847656 -8.851562 4.457031 -8.96875 3.96875 -8.96875 Z M 2.0625 -2.578125 C 2.0625 -2.128906 2.21875 -1.753906 2.53125 -1.453125 C 2.851562 -1.160156 3.335938 -1.015625 3.984375 -1.015625 C 4.617188 -1.015625 5.101562 -1.160156 5.4375 -1.453125 C 5.769531 -1.742188 5.9375 -2.125 5.9375 -2.59375 C 5.9375 -3.050781 5.753906 -3.425781 5.390625 -3.71875 C 5.035156 -4.019531 4.582031 -4.285156 4.03125 -4.515625 L 3.828125 -4.609375 C 3.253906 -4.359375 2.816406 -4.070312 2.515625 -3.75 C 2.210938 -3.4375 2.0625 -3.046875 2.0625 -2.578125 Z M 2.0625 -2.578125 "/>
</g>
<g id="glyph-0-13">
<path d="M 7.34375 -5.71875 C 7.34375 -5.15625 7.300781 -4.585938 7.21875 -4.015625 C 7.144531 -3.453125 7.007812 -2.921875 6.8125 -2.421875 C 6.613281 -1.929688 6.335938 -1.488281 5.984375 -1.09375 C 5.628906 -0.707031 5.175781 -0.40625 4.625 -0.1875 C 4.070312 0.03125 3.40625 0.140625 2.625 0.140625 C 2.4375 0.140625 2.210938 0.128906 1.953125 0.109375 C 1.703125 0.0859375 1.5 0.0546875 1.34375 0.015625 L 1.34375 -1.234375 C 1.71875 -1.117188 2.128906 -1.0625 2.578125 -1.0625 C 3.210938 -1.0625 3.738281 -1.15625 4.15625 -1.34375 C 4.582031 -1.539062 4.914062 -1.8125 5.15625 -2.15625 C 5.40625 -2.5 5.582031 -2.898438 5.6875 -3.359375 C 5.800781 -3.816406 5.867188 -4.300781 5.890625 -4.8125 L 5.8125 -4.8125 C 5.601562 -4.5 5.316406 -4.226562 4.953125 -4 C 4.585938 -3.769531 4.097656 -3.65625 3.484375 -3.65625 C 2.617188 -3.65625 1.925781 -3.921875 1.40625 -4.453125 C 0.882812 -4.992188 0.625 -5.75 0.625 -6.71875 C 0.625 -7.769531 0.914062 -8.597656 1.5 -9.203125 C 2.09375 -9.816406 2.882812 -10.125 3.875 -10.125 C 4.53125 -10.125 5.117188 -9.960938 5.640625 -9.640625 C 6.160156 -9.328125 6.570312 -8.84375 6.875 -8.1875 C 7.1875 -7.539062 7.34375 -6.71875 7.34375 -5.71875 Z M 3.890625 -8.90625 C 3.359375 -8.90625 2.925781 -8.726562 2.59375 -8.375 C 2.257812 -8.019531 2.09375 -7.476562 2.09375 -6.75 C 2.09375 -6.15625 2.234375 -5.679688 2.515625 -5.328125 C 2.804688 -4.984375 3.25 -4.8125 3.84375 -4.8125 C 4.25 -4.8125 4.597656 -4.894531 4.890625 -5.0625 C 5.191406 -5.226562 5.425781 -5.441406 5.59375 -5.703125 C 5.769531 -5.972656 5.859375 -6.25 5.859375 -6.53125 C 5.859375 -6.894531 5.785156 -7.257812 5.640625 -7.625 C 5.492188 -7.988281 5.269531 -8.289062 4.96875 -8.53125 C 4.675781 -8.78125 4.316406 -8.90625 3.890625 -8.90625 Z M 3.890625 -8.90625 "/>
</g>
</g>
</defs>
<rect x="-60" y="-60" width="720" height="720" fill="rgb(100%, 100%, 100%)" fill-opacity="1"/>
<path fill="none" stroke-width="1" stroke-linecap="butt" stroke-linejoin="miter" stroke="rgb(74.509804%, 74.509804%, 74.509804%)" stroke-opacity="1" stroke-miterlimit="10" d="M 405.835938 515.757812 L 320.273438 540 "/>
<path fill="none" stroke-width="1" stroke-linecap="butt" stroke-linejoin="miter" stroke="rgb(74.509804%, 74.509804%, 74.509804%)" stroke-opacity="1" stroke-miterlimit="10" d="M 405.835938 515.757812 L 92.136719 426.886719 "/>
<path fill="none" stroke-width="1" stroke-linecap="butt" stroke-linejoin="miter" stroke="rgb(74.509804%, 74.509804%, 74.509804%)" stroke-opacity="1" stroke-miterlimit="10" d="M 231.695312 68.171875 L 523.652344 212.929688 "/>
<path fill="none" stroke-width="4" stroke-linecap="butt" stroke-linejoin="miter" stroke="rgb(74.509804%, 74.509804%, 74.509804%)" stroke-opacity="1" stroke-miterlimit="10" d="M 231.695312 68.171875 L 320.273438 60 "/>
<path fill="none" stroke-width="1" stroke-linecap="butt" stroke-linejoin="miter" stroke="rgb(74.509804%, 74.509804%, 74.509804%)" stroke-opacity="1" stroke-miterlimit="10" d="M 405.835938 515.757812 L 92.136719 173.113281 "/>
<path fill="none" stroke-width="1" stroke-linecap="butt" stroke-linejoin="miter" stroke="rgb(74.509804%, 74.509804%, 74.509804%)" stroke-opacity="1" stroke-miterlimit="10" d="M 405.835938 515.757812 L 523.652344 212.929688 "/>
<path fill="none" stroke-width="1" stroke-linecap="butt" stroke-linejoin="miter" stroke="rgb(74.509804%, 74.509804%, 74.509804%)" stroke-opacity="1" stroke-miterlimit="10" d="M 405.835938 515.757812 L 320.273438 60 "/>
<path fill="none" stroke-width="1" stroke-linecap="butt" stroke-linejoin="miter" stroke="rgb(74.509804%, 74.509804%, 74.509804%)" stroke-opacity="1" stroke-miterlimit="10" d="M 60 344.289062 L 60 255.710938 "/>
<path fill="none" stroke-width="1" stroke-linecap="butt" stroke-linejoin="miter" stroke="rgb(74.509804%, 74.509804%, 74.509804%)" stroke-opacity="1" stroke-miterlimit="10" d="M 60 255.710938 L 92.136719 173.113281 "/>
<path fill="none" stroke-width="1" stroke-linecap="butt" stroke-linejoin="miter" stroke="rgb(74.509804%, 74.509804%, 74.509804%)" stroke-opacity="1" stroke-miterlimit="10" d="M 60 344.289062 L 231.695312 68.171875 "/>
<path fill="none" stroke-width="1" stroke-linecap="butt" stroke-linejoin="miter" stroke="rgb(74.509804%, 74.509804%, 74.509804%)" stroke-opacity="1" stroke-miterlimit="10" d="M 60 344.289062 L 476.824219 137.621094 "/>
<path fill="none" stroke-width="1" stroke-linecap="butt" stroke-linejoin="miter" stroke="rgb(74.509804%, 74.509804%, 74.509804%)" stroke-opacity="1" stroke-miterlimit="10" d="M 320.273438 60 L 405.835938 84.242188 "/>
<path fill="none" stroke-width="1" stroke-linecap="butt" stroke-linejoin="miter" stroke="rgb(74.509804%, 74.509804%, 74.509804%)" stroke-opacity="1" stroke-miterlimit="10" d="M 320.273438 540 L 231.695312 531.828125 "/>
<path fill="none" stroke-width="1" stroke-linecap="butt" stroke-linejoin="miter" stroke="rgb(74.509804%, 74.509804%, 74.509804%)" stroke-opacity="1" stroke-miterlimit="10" d="M 231.695312 531.828125 L 152.066406 492.34375 "/>
<path fill="none" stroke-width="1" stroke-linecap="butt" stroke-linejoin="miter" stroke="rgb(74.509804%, 74.509804%, 74.509804%)" stroke-opacity="1" stroke-miterlimit="10" d="M 320.273438 540 L 60 344.289062 "/>
<path fill="none" stroke-width="1" stroke-linecap="butt" stroke-linejoin="miter" stroke="rgb(74.509804%, 74.509804%, 74.509804%)" stroke-opacity="1" stroke-miterlimit="10" d="M 320.273438 540 L 405.835938 84.242188 "/>
<path fill="none" stroke-width="1" stroke-linecap="butt" stroke-linejoin="miter" stroke="rgb(74.509804%, 74.509804%, 74.509804%)" stroke-opacity="1" stroke-miterlimit="10" d="M 231.695312 531.828125 L 60 255.710938 "/>
<path fill="none" stroke-width="1" stroke-linecap="butt" stroke-linejoin="miter" stroke="rgb(74.509804%, 74.509804%, 74.509804%)" stroke-opacity="1" stroke-miterlimit="10" d="M 320.273438 540 L 152.066406 107.65625 "/>
<path fill="none" stroke-width="1" stroke-linecap="butt" stroke-linejoin="miter" stroke="rgb(74.509804%, 74.509804%, 74.509804%)" stroke-opacity="1" stroke-miterlimit="10" d="M 405.835938 84.242188 L 476.824219 137.621094 "/>
<path fill="none" stroke-width="1" stroke-linecap="butt" stroke-linejoin="miter" stroke="rgb(74.509804%, 74.509804%, 74.509804%)" stroke-opacity="1" stroke-miterlimit="10" d="M 231.695312 531.828125 L 231.695312 68.171875 "/>
<path fill="none" stroke-width="4" stroke-linecap="butt" stroke-linejoin="miter" stroke="rgb(74.509804%, 74.509804%, 74.509804%)" stroke-opacity="1" stroke-miterlimit="10" d="M 540 300 L 523.652344 387.070312 "/>
<path fill="none" stroke-width="1" stroke-linecap="butt" stroke-linejoin="miter" stroke="rgb(74.509804%, 74.509804%, 74.509804%)" stroke-opacity="1" stroke-miterlimit="10" d="M 540 300 L 92.136719 426.886719 "/>
<path fill="none" stroke-width="1" stroke-linecap="butt" stroke-linejoin="miter" stroke="rgb(74.509804%, 74.509804%, 74.509804%)" stroke-opacity="1" stroke-miterlimit="10" d="M 231.695312 531.828125 L 476.824219 137.621094 "/>
<path fill="none" stroke-width="4" stroke-linecap="butt" stroke-linejoin="miter" stroke="rgb(74.509804%, 74.509804%, 74.509804%)" stroke-opacity="1" stroke-miterlimit="10" d="M 523.652344 387.070312 L 476.824219 462.378906 "/>
<path fill="none" stroke-width="1" stroke-linecap="butt" stroke-linejoin="miter" stroke="rgb(74.509804%, 74.509804%, 74.509804%)" stroke-opacity="1" stroke-miterlimit="10" d="M 540 300 L 320.273438 540 "/>
<path fill="none" stroke-width="1" stroke-linecap="butt" stroke-linejoin="miter" stroke="rgb(74.509804%, 74.509804%, 74.509804%)" stroke-opacity="1" stroke-miterlimit="10" d="M 540 300 L 92.136719 173.113281 "/>
<path fill="none" stroke-width="4" stroke-linecap="butt" stroke-linejoin="miter" stroke="rgb(74.509804%, 74.509804%, 74.509804%)" stroke-opacity="1" stroke-miterlimit="10" d="M 540 300 L 523.652344 212.929688 "/>
<path fill="none" stroke-width="1" stroke-linecap="butt" stroke-linejoin="miter" stroke="rgb(74.509804%, 74.509804%, 74.509804%)" stroke-opacity="1" stroke-miterlimit="10" d="M 523.652344 387.070312 L 231.695312 531.828125 "/>
<path fill="none" stroke-width="1" stroke-linecap="butt" stroke-linejoin="miter" stroke="rgb(74.509804%, 74.509804%, 74.509804%)" stroke-opacity="1" stroke-miterlimit="10" d="M 523.652344 387.070312 L 152.066406 107.65625 "/>
<path fill="none" stroke-width="4" stroke-linecap="butt" stroke-linejoin="miter" stroke="rgb(74.509804%, 74.509804%, 74.509804%)" stroke-opacity="1" stroke-miterlimit="10" d="M 540 300 L 320.273438 60 "/>
<path fill="none" stroke-width="1" stroke-linecap="butt" stroke-linejoin="miter" stroke="rgb(74.509804%, 74.509804%, 74.509804%)" stroke-opacity="1" stroke-miterlimit="10" d="M 60 255.710938 L 320.273438 60 "/>
<path fill="none" stroke-width="1" stroke-linecap="butt" stroke-linejoin="miter" stroke="rgb(74.509804%, 74.509804%, 74.509804%)" stroke-opacity="1" stroke-miterlimit="10" d="M 523.652344 387.070312 L 60 344.289062 "/>
<path fill="none" stroke-width="1" stroke-linecap="butt" stroke-linejoin="miter" stroke="rgb(74.509804%, 74.509804%, 74.509804%)" stroke-opacity="1" stroke-miterlimit="10" d="M 523.652344 387.070312 L 405.835938 84.242188 "/>
<path fill="none" stroke-width="1" stroke-linecap="butt" stroke-linejoin="miter" stroke="rgb(74.509804%, 74.509804%, 74.509804%)" stroke-opacity="1" stroke-miterlimit="10" d="M 92.136719 173.113281 L 405.835938 84.242188 "/>
<path fill="none" stroke-width="1" stroke-linecap="butt" stroke-linejoin="miter" stroke="rgb(74.509804%, 74.509804%, 74.509804%)" stroke-opacity="1" stroke-miterlimit="10" d="M 152.066406 492.34375 L 92.136719 426.886719 "/>
<path fill="none" stroke-width="1" stroke-linecap="butt" stroke-linejoin="miter" stroke="rgb(74.509804%, 74.509804%, 74.509804%)" stroke-opacity="1" stroke-miterlimit="10" d="M 152.066406 492.34375 L 320.273438 60 "/>
<path fill="none" stroke-width="4" stroke-linecap="butt" stroke-linejoin="miter" stroke="rgb(74.509804%, 74.509804%, 74.509804%)" stroke-opacity="1" stroke-miterlimit="10" d="M 476.824219 137.621094 L 523.652344 212.929688 "/>
<path fill="none" stroke-width="1" stroke-linecap="butt" stroke-linejoin="miter" stroke="rgb(74.509804%, 74.509804%, 74.509804%)" stroke-opacity="1" stroke-miterlimit="10" d="M 152.066406 492.34375 L 92.136719 173.113281 "/>
<path fill="none" stroke-width="1" stroke-linecap="butt" stroke-linejoin="miter" stroke="rgb(74.509804%, 74.509804%, 74.509804%)" stroke-opacity="1" stroke-miterlimit="10" d="M 152.066406 492.34375 L 523.652344 212.929688 "/>
<path fill="none" stroke-width="1" stroke-linecap="butt" stroke-linejoin="miter" stroke="rgb(74.509804%, 74.509804%, 74.509804%)" stroke-opacity="1" stroke-miterlimit="10" d="M 92.136719 173.113281 L 152.066406 107.65625 "/>
<path fill="none" stroke-width="1" stroke-linecap="butt" stroke-linejoin="miter" stroke="rgb(74.509804%, 74.509804%, 74.509804%)" stroke-opacity="1" stroke-miterlimit="10" d="M 476.824219 462.378906 L 405.835938 515.757812 "/>
<path fill="none" stroke-width="1" stroke-linecap="butt" stroke-linejoin="miter" stroke="rgb(74.509804%, 74.509804%, 74.509804%)" stroke-opacity="1" stroke-miterlimit="10" d="M 476.824219 462.378906 L 60 255.710938 "/>
<path fill="none" stroke-width="1" stroke-linecap="butt" stroke-linejoin="miter" stroke="rgb(74.509804%, 74.509804%, 74.509804%)" stroke-opacity="1" stroke-miterlimit="10" d="M 152.066406 107.65625 L 231.695312 68.171875 "/>
<path fill="none" stroke-width="1" stroke-linecap="butt" stroke-linejoin="miter" stroke="rgb(74.509804%, 74.509804%, 74.509804%)" stroke-opacity="1" stroke-miterlimit="10" d="M 476.824219 462.378906 L 152.066406 492.34375 "/>
<path fill="none" stroke-width="4" stroke-linecap="butt" stroke-linejoin="miter" stroke="rgb(74.509804%, 74.509804%, 74.509804%)" stroke-opacity="1" stroke-miterlimit="10" d="M 476.824219 462.378906 L 231.695312 68.171875 "/>
<path fill="none" stroke-width="1" stroke-linecap="butt" stroke-linejoin="miter" stroke="rgb(74.509804%, 74.509804%, 74.509804%)" stroke-opacity="1" stroke-miterlimit="10" d="M 152.066406 107.65625 L 476.824219 137.621094 "/>
<path fill="none" stroke-width="4" stroke-linecap="butt" stroke-linejoin="miter" stroke="rgb(74.509804%, 74.509804%, 74.509804%)" stroke-opacity="1" stroke-miterlimit="10" d="M 476.824219 462.378906 L 476.824219 137.621094 "/>
<path fill="none" stroke-width="1" stroke-linecap="butt" stroke-linejoin="miter" stroke="rgb(74.509804%, 74.509804%, 74.509804%)" stroke-opacity="1" stroke-miterlimit="10" d="M 92.136719 426.886719 L 152.066406 107.65625 "/>
<path fill="none" stroke-width="1" stroke-linecap="butt" stroke-linejoin="miter" stroke="rgb(74.509804%, 74.509804%, 74.509804%)" stroke-opacity="1" stroke-miterlimit="10" d="M 60 255.710938 L 523.652344 212.929688 "/>
<path fill="none" stroke-width="1" stroke-linecap="butt" stroke-linejoin="miter" stroke="rgb(74.509804%, 74.509804%, 74.509804%)" stroke-opacity="1" stroke-miterlimit="10" d="M 92.136719 426.886719 L 60 344.289062 "/>
<path fill="none" stroke-width="1" stroke-linecap="butt" stroke-linejoin="miter" stroke="rgb(74.509804%, 74.509804%, 74.509804%)" stroke-opacity="1" stroke-miterlimit="10" d="M 92.136719 426.886719 L 405.835938 84.242188 "/>
<path fill-rule="nonzero" fill="rgb(67.843137%, 84.705882%, 90.196078%)" fill-opacity="1" stroke-width="1" stroke-linecap="butt" stroke-linejoin="miter" stroke="rgb(0%, 0%, 0%)" stroke-opacity="1" stroke-miterlimit="10" d="M 555 300 C 555 308.285156 548.285156 315 540 315 C 531.714844 315 525 308.285156 525 300 C 525 291.714844 531.714844 285 540 285 C 548.285156 285 555 291.714844 555 300 "/>
<path fill-rule="nonzero" fill="rgb(67.843137%, 84.705882%, 90.196078%)" fill-opacity="1" stroke-width="1" stroke-linecap="butt" stroke-linejoin="miter" stroke="rgb(0%, 0%, 0%)" stroke-opacity="1" stroke-miterlimit="10" d="M 538.652344 387.070312 C 538.652344 395.355469 531.9375 402.070312 523.652344 402.070312 C 515.371094 402.070312 508.652344 395.355469 508.652344 387.070312 C 508.652344 378.785156 515.371094 372.070312 523.652344 372.070312 C 531.9375 372.070312 538.652344 378.785156 538.652344 387.070312 "/>
<path fill-rule="nonzero" fill="rgb(67.843137%, 84.705882%, 90.196078%)" fill-opacity="1" stroke-width="1" stroke-linecap="butt" stroke-linejoin="miter" stroke="rgb(0%, 0%, 0%)" stroke-opacity="1" stroke-miterlimit="10" d="M 491.824219 462.378906 C 491.824219 470.664062 485.109375 477.378906 476.824219 477.378906 C 468.539062 477.378906 461.824219 470.664062 461.824219 462.378906 C 461.824219 454.09375 468.539062 447.378906 476.824219 447.378906 C 485.109375 447.378906 491.824219 454.09375 491.824219 462.378906 "/>
<path fill-rule="nonzero" fill="rgb(67.843137%, 84.705882%, 90.196078%)" fill-opacity="1" stroke-width="1" stroke-linecap="butt" stroke-linejoin="miter" stroke="rgb(0%, 0%, 0%)" stroke-opacity="1" stroke-miterlimit="10" d="M 420.835938 515.757812 C 420.835938 524.042969 414.121094 530.757812 405.835938 530.757812 C 397.550781 530.757812 390.835938 524.042969 390.835938 515.757812 C 390.835938 507.476562 397.550781 500.757812 405.835938 500.757812 C 414.121094 500.757812 420.835938 507.476562 420.835938 515.757812 "/>
<path fill-rule="nonzero" fill="rgb(67.843137%, 84.705882%, 90.196078%)" fill-opacity="1" stroke-width="1" stroke-linecap="butt" stroke-linejoin="miter" stroke="rgb(0%, 0%, 0%)" stroke-opacity="1" stroke-miterlimit="10" d="M 335.273438 540 C 335.273438 548.285156 328.558594 555 320.273438 555 C 311.988281 555 305.273438 548.285156 305.273438 540 C 305.273438 531.714844 311.988281 525 320.273438 525 C 328.558594 525 335.273438 531.714844 335.273438 540 "/>
<path fill-rule="nonzero" fill="rgb(67.843137%, 84.705882%, 90.196078%)" fill-opacity="1" stroke-width="1" stroke-linecap="butt" stroke-linejoin="miter" stroke="rgb(0%, 0%, 0%)" stroke-opacity="1" stroke-miterlimit="10" d="M 246.695312 531.828125 C 246.695312 540.113281 239.980469 546.828125 231.695312 546.828125 C 223.410156 546.828125 216.695312 540.113281 216.695312 531.828125 C 216.695312 523.542969 223.410156 516.828125 231.695312 516.828125 C 239.980469 516.828125 246.695312 523.542969 246.695312 531.828125 "/>
<path fill-rule="nonzero" fill="rgb(67.843137%, 84.705882%, 90.196078%)" fill-opacity="1" stroke-width="1" stroke-linecap="butt" stroke-linejoin="miter" stroke="rgb(0%, 0%, 0%)" stroke-opacity="1" stroke-miterlimit="10" d="M 167.066406 492.34375 C 167.066406 500.628906 160.347656 507.34375 152.066406 507.34375 C 143.78125 507.34375 137.066406 500.628906 137.066406 492.34375 C 137.066406 484.058594 143.78125 477.34375 152.066406 477.34375 C 160.347656 477.34375 167.066406 484.058594 167.066406 492.34375 "/>
<path fill-rule="nonzero" fill="rgb(67.843137%, 84.705882%, 90.196078%)" fill-opacity="1" stroke-width="1" stroke-linecap="butt" stroke-linejoin="miter" stroke="rgb(0%, 0%, 0%)" stroke-opacity="1" stroke-miterlimit="10" d="M 107.136719 426.886719 C 107.136719 435.167969 100.417969 441.886719 92.136719 441.886719 C 83.851562 441.886719 77.136719 435.167969 77.136719 426.886719 C 77.136719 418.601562 83.851562 411.886719 92.136719 411.886719 C 100.417969 411.886719 107.136719 418.601562 107.136719 426.886719 "/>
<path fill-rule="nonzero" fill="rgb(67.843137%, 84.705882%, 90.196078%)" fill-opacity="1" stroke-width="1" stroke-linecap="butt" stroke-linejoin="miter" stroke="rgb(0%, 0%, 0%)" stroke-opacity="1" stroke-miterlimit="10" d="M 75 344.289062 C 75 352.574219 68.285156 359.289062 60 359.289062 C 51.714844 359.289062 45 352.574219 45 344.289062 C 45 336.003906 51.714844 329.289062 60 329.289062 C 68.285156 329.289062 75 336.003906 75 344.289062 "/>
<path fill-rule="nonzero" fill="rgb(67.843137%, 84.705882%, 90.196078%)" fill-opacity="1" stroke-width="1" stroke-linecap="butt" stroke-linejoin="miter" stroke="rgb(0%, 0%, 0%)" stroke-opacity="1" stroke-miterlimit="10" d="M 75 255.710938 C 75 263.996094 68.285156 270.710938 60 270.710938 C 51.714844 270.710938 45 263.996094 45 255.710938 C 45 247.425781 51.714844 240.710938 60 240.710938 C 68.285156 240.710938 75 247.425781 75 255.710938 "/>
<path fill-rule="nonzero" fill="rgb(67.843137%, 84.705882%, 90.196078%)" fill-opacity="1" stroke-width="1" stroke-linecap="butt" stroke-linejoin="miter" stroke="rgb(0%, 0%, 0%)" stroke-opacity="1" stroke-miterlimit="10" d="M 107.136719 173.113281 C 107.136719 181.398438 100.417969 188.113281 92.136719 188.113281 C 83.851562 188.113281 77.136719 181.398438 77.136719 173.113281 C 77.136719 164.832031 83.851562 158.113281 92.136719 158.113281 C 100.417969 158.113281 107.136719 164.832031 107.136719 173.113281 "/>
<path fill-rule="nonzero" fill="rgb(67.843137%, 84.705882%, 90.196078%)" fill-opacity="1" stroke-width="1" stroke-linecap="butt" stroke-linejoin="miter" stroke="rgb(0%, 0%, 0%)" stroke-opacity="1" stroke-miterlimit="10" d="M 167.066406 107.65625 C 167.066406 115.941406 160.347656 122.65625 152.066406 122.65625 C 143.78125 122.65625 137.066406 115.941406 137.066406 107.65625 C 137.066406 99.371094 143.78125 92.65625 152.066406 92.65625 C 160.347656 92.65625 167.066406 99.371094 167.066406 107.65625 "/>
<path fill-rule="nonzero" fill="rgb(67.843137%, 84.705882%, 90.196078%)" fill-opacity="1" stroke-width="1" stroke-linecap="butt" stroke-linejoin="miter" stroke="rgb(0%, 0%, 0%)" stroke-opacity="1" stroke-miterlimit="10" d="M 246.695312 68.171875 C 246.695312 76.457031 239.980469 83.171875 231.695312 83.171875 C 223.410156 83.171875 216.695312 76.457031 216.695312 68.171875 C 216.695312 59.886719 223.410156 53.171875 231.695312 53.171875 C 239.980469 53.171875 246.695312 59.886719 246.695312 68.171875 "/>
<path fill-rule="nonzero" fill="rgb(67.843137%, 84.705882%, 90.196078%)" fill-opacity="1" stroke-width="1" stroke-linecap="butt" stroke-linejoin="miter" stroke="rgb(0%, 0%, 0%)" stroke-opacity="1" stroke-miterlimit="10" d="M 335.273438 60 C 335.273438 68.285156 328.558594 75 320.273438 75 C 311.988281 75 305.273438 68.285156 305.273438 60 C 305.273438 51.714844 311.988281 45 320.273438 45 C 328.558594 45 335.273438 51.714844 335.273438 60 "/>
<path fill-rule="nonzero" fill="rgb(67.843137%, 84.705882%, 90.196078%)" fill-opacity="1" stroke-width="1" stroke-linecap="butt" stroke-linejoin="miter" stroke="rgb(0%, 0%, 0%)" stroke-opacity="1" stroke-miterlimit="10" d="M 420.835938 84.242188 C 420.835938 92.523438 414.121094 99.242188 405.835938 99.242188 C 397.550781 99.242188 390.835938 92.523438 390.835938 84.242188 C 390.835938 75.957031 397.550781 69.242188 405.835938 69.242188 C 414.121094 69.242188 420.835938 75.957031 420.835938 84.242188 "/>
<path fill-rule="nonzero" fill="rgb(67.843137%, 84.705882%, 90.196078%)" fill-opacity="1" stroke-width="1" stroke-linecap="butt" stroke-linejoin="miter" stroke="rgb(0%, 0%, 0%)" stroke-opacity="1" stroke-miterlimit="10" d="M 491.824219 137.621094 C 491.824219 145.90625 485.109375 152.621094 476.824219 152.621094 C 468.539062 152.621094 461.824219 145.90625 461.824219 137.621094 C 461.824219 129.335938 468.539062 122.621094 476.824219 122.621094 C 485.109375 122.621094 491.824219 129.335938 491.824219 137.621094 "/>
<path fill-rule="nonzero" fill="rgb(67.843137%, 84.705882%, 90.196078%)" fill-opacity="1" stroke-width="1" stroke-linecap="butt" stroke-linejoin="miter" stroke="rgb(0%, 0%, 0%)" stroke-opacity="1" stroke-miterlimit="10" d="M 538.652344 212.929688 C 538.652344 221.214844 531.9375 227.929688 523.652344 227.929688 C 515.371094 227.929688 508.652344 221.214844 508.652344 212.929688 C 508.652344 204.644531 515.371094 197.929688 523.652344 197.929688 C 531.9375 197.929688 538.652344 204.644531 538.652344 212.929688 "/>
<g fill="rgb(0%, 0%, 0%)" fill-opacity="1">
<use xlink:href="#glyph-0-0" x="522.535156" y="307.125"/>
<use xlink:href="#glyph-0-1" x="529.927156" y="307.125"/>
<use xlink:href="#glyph-0-2" x="534.883156" y="307.125"/>
<use xlink:href="#glyph-0-3" x="545.117156" y="307.125"/>
<use xlink:href="#glyph-0-4" x="548.757156" y="307.125"/>
</g>
<g fill="rgb(0%, 0%, 0%)" fill-opacity="1">
<use xlink:href="#glyph-0-0" x="507.273438" y="394.117188"/>
<use xlink:href="#glyph-0-1" x="514.665438" y="394.117188"/>
<use xlink:href="#glyph-0-2" x="519.621438" y="394.117188"/>
<use xlink:href="#glyph-0-3" x="529.855438" y="394.117188"/>
<use xlink:href="#glyph-0-5" x="533.495438" y="394.117188"/>
</g>
<g fill="rgb(0%, 0%, 0%)" fill-opacity="1">
<use xlink:href="#glyph-0-0" x="459.367188" y="469.5"/>
<use xlink:href="#glyph-0-1" x="466.759187" y="469.5"/>
<use xlink:href="#glyph-0-2" x="471.715188" y="469.5"/>
<use xlink:href="#glyph-0-3" x="481.949187" y="469.5"/>
<use xlink:href="#glyph-0-6" x="485.589187" y="469.5"/>
</g>
<g fill="rgb(0%, 0%, 0%)" fill-opacity="1">
<use xlink:href="#glyph-0-0" x="388.417969" y="522.878906"/>
<use xlink:href="#glyph-0-1" x="395.809969" y="522.878906"/>
<use xlink:href="#glyph-0-2" x="400.765969" y="522.878906"/>
<use xlink:href="#glyph-0-3" x="410.999969" y="522.878906"/>
<use xlink:href="#glyph-0-7" x="414.639969" y="522.878906"/>
</g>
<g fill="rgb(0%, 0%, 0%)" fill-opacity="1">
<use xlink:href="#glyph-0-0" x="302.625" y="547.070312"/>
<use xlink:href="#glyph-0-1" x="310.017" y="547.070312"/>
<use xlink:href="#glyph-0-2" x="314.973" y="547.070312"/>
<use xlink:href="#glyph-0-3" x="325.207" y="547.070312"/>
<use xlink:href="#glyph-0-8" x="328.847" y="547.070312"/>
</g>
<g fill="rgb(0%, 0%, 0%)" fill-opacity="1">
<use xlink:href="#glyph-0-0" x="214.292969" y="538.875"/>
<use xlink:href="#glyph-0-1" x="221.684969" y="538.875"/>
<use xlink:href="#glyph-0-2" x="226.640969" y="538.875"/>
<use xlink:href="#glyph-0-3" x="236.874969" y="538.875"/>
<use xlink:href="#glyph-0-9" x="240.514969" y="538.875"/>
</g>
<g fill="rgb(0%, 0%, 0%)" fill-opacity="1">
<use xlink:href="#glyph-0-0" x="134.585938" y="499.457031"/>
<use xlink:href="#glyph-0-1" x="141.977937" y="499.457031"/>
<use xlink:href="#glyph-0-2" x="146.933937" y="499.457031"/>
<use xlink:href="#glyph-0-3" x="157.167937" y="499.457031"/>
<use xlink:href="#glyph-0-10" x="160.807937" y="499.457031"/>
</g>
<g fill="rgb(0%, 0%, 0%)" fill-opacity="1">
<use xlink:href="#glyph-0-0" x="74.664062" y="433.933594"/>
<use xlink:href="#glyph-0-1" x="82.056062" y="433.933594"/>
<use xlink:href="#glyph-0-2" x="87.012062" y="433.933594"/>
<use xlink:href="#glyph-0-3" x="97.246062" y="433.933594"/>
<use xlink:href="#glyph-0-11" x="100.886062" y="433.933594"/>
</g>
<g fill="rgb(0%, 0%, 0%)" fill-opacity="1">
<use xlink:href="#glyph-0-0" x="42.542969" y="351.40625"/>
<use xlink:href="#glyph-0-1" x="49.934969" y="351.40625"/>
<use xlink:href="#glyph-0-2" x="54.890969" y="351.40625"/>
<use xlink:href="#glyph-0-3" x="65.124969" y="351.40625"/>
<use xlink:href="#glyph-0-12" x="68.764969" y="351.40625"/>
</g>
<g fill="rgb(0%, 0%, 0%)" fill-opacity="1">
<use xlink:href="#glyph-0-0" x="42.550781" y="262.824219"/>
<use xlink:href="#glyph-0-1" x="49.942781" y="262.824219"/>
<use xlink:href="#glyph-0-2" x="54.898781" y="262.824219"/>
<use xlink:href="#glyph-0-3" x="65.132781" y="262.824219"/>
<use xlink:href="#glyph-0-13" x="68.772781" y="262.824219"/>
</g>
<g fill="rgb(0%, 0%, 0%)" fill-opacity="1">
<use xlink:href="#glyph-0-0" x="70.664062" y="180.242188"/>
<use xlink:href="#glyph-0-1" x="78.056062" y="180.242188"/>
<use xlink:href="#glyph-0-2" x="83.012062" y="180.242188"/>
<use xlink:href="#glyph-0-3" x="93.246062" y="180.242188"/>
<use xlink:href="#glyph-0-5" x="96.886062" y="180.242188"/>
<use xlink:href="#glyph-0-4" x="104.894062" y="180.242188"/>
</g>
<g fill="rgb(0%, 0%, 0%)" fill-opacity="1">
<use xlink:href="#glyph-0-0" x="131.679688" y="114.703125"/>
<use xlink:href="#glyph-0-1" x="139.071687" y="114.703125"/>
<use xlink:href="#glyph-0-2" x="144.027687" y="114.703125"/>
<use xlink:href="#glyph-0-3" x="154.261687" y="114.703125"/>
<use xlink:href="#glyph-0-5" x="157.901687" y="114.703125"/>
<use xlink:href="#glyph-0-5" x="165.909687" y="114.703125"/>
</g>
<g fill="rgb(0%, 0%, 0%)" fill-opacity="1">
<use xlink:href="#glyph-0-0" x="210.234375" y="75.292969"/>
<use xlink:href="#glyph-0-1" x="217.626375" y="75.292969"/>
<use xlink:href="#glyph-0-2" x="222.582375" y="75.292969"/>
<use xlink:href="#glyph-0-3" x="232.816375" y="75.292969"/>
<use xlink:href="#glyph-0-5" x="236.456375" y="75.292969"/>
<use xlink:href="#glyph-0-6" x="244.464375" y="75.292969"/>
</g>
<g fill="rgb(0%, 0%, 0%)" fill-opacity="1">
<use xlink:href="#glyph-0-0" x="298.855469" y="67.117188"/>
<use xlink:href="#glyph-0-1" x="306.247469" y="67.117188"/>
<use xlink:href="#glyph-0-2" x="311.203469" y="67.117188"/>
<use xlink:href="#glyph-0-3" x="321.437469" y="67.117188"/>
<use xlink:href="#glyph-0-5" x="325.077469" y="67.117188"/>
<use xlink:href="#glyph-0-7" x="333.085469" y="67.117188"/>
</g>
<g fill="rgb(0%, 0%, 0%)" fill-opacity="1">
<use xlink:href="#glyph-0-0" x="384.183594" y="91.308594"/>
<use xlink:href="#glyph-0-1" x="391.575594" y="91.308594"/>
<use xlink:href="#glyph-0-2" x="396.531594" y="91.308594"/>
<use xlink:href="#glyph-0-3" x="406.765594" y="91.308594"/>
<use xlink:href="#glyph-0-5" x="410.405594" y="91.308594"/>
<use xlink:href="#glyph-0-8" x="418.413594" y="91.308594"/>
</g>
<g fill="rgb(0%, 0%, 0%)" fill-opacity="1">
<use xlink:href="#glyph-0-0" x="455.417969" y="144.667969"/>
<use xlink:href="#glyph-0-1" x="462.809969" y="144.667969"/>
<use xlink:href="#glyph-0-2" x="467.765969" y="144.667969"/>
<use xlink:href="#glyph-0-3" x="477.999969" y="144.667969"/>
<use xlink:href="#glyph-0-5" x="481.639969" y="144.667969"/>
<use xlink:href="#glyph-0-9" x="489.647969" y="144.667969"/>
</g>
<g fill="rgb(0%, 0%, 0%)" fill-opacity="1">
<use xlink:href="#glyph-0-0" x="502.171875" y="220.042969"/>
<use xlink:href="#glyph-0-1" x="509.563875" y="220.042969"/>
<use xlink:href="#glyph-0-2" x="514.519875" y="220.042969"/>
<use xlink:href="#glyph-0-3" x="524.753875" y="220.042969"/>
<use xlink:href="#glyph-0-5" x="528.393875" y="220.042969"/>
<use xlink:href="#glyph-0-10" x="536.401875" y="220.042969"/>
</g>
</svg>
